P2
# CREATOR: GIMP PNM Filter Version 1.1
20 10
255
255
255
255
255
229 120 19 0
0
0
0
0
0
19
120
229
255
255
255
255
255
255
255
255
197
70
0
0
0
0
0
0
0
0
70
197
255
255
255
255
255
255
255
255
140
12
0
0
0
0
0
0
0
0
12
140
255
255
255
255
255
255
255
255
128
0
0
0
0
0
0
0
0
0
0
128
255
255
255
255
255
255
255
255
128
0
0
0
0
0
0
0
0
0
0
128
255
255
255
255
255
255
255
255
179
51
0
0
0
0
0
0
0
0
51
179
255
255
255
255
255
255
255
255
217
89
0
0
0
0
0
0
0
0
89
217
255
255
255
255
255
255
255
255
249
198
77
0
0
0
0
0
0
77
198
249
255
255
255
255
255
255
255
255
255
249
198
128
51
0
0
51
128
198
249
255
255
255
255
255
255
255
255
255
255
255
249
236
218
205
205
218
236
249
255
255
255
255
255
255
