P1
# CREATOR: GIMP PNM Filter Version 1.1
3 2
1
0
1
1
0
1