<?xml version="1.0" encoding="UTF-8" standalone="no"?>
<!-- Created with Inkscape (http://www.inkscape.org/) -->

<svg
   xmlns:dc="http://purl.org/dc/elements/1.1/"
   xmlns:cc="http://creativecommons.org/ns#"
   xmlns:rdf="http://www.w3.org/1999/02/22-rdf-syntax-ns#"
   xmlns:svg="http://www.w3.org/2000/svg"
   xmlns="http://www.w3.org/2000/svg"
   xmlns:sodipodi="http://sodipodi.sourceforge.net/DTD/sodipodi-0.dtd"
   xmlns:inkscape="http://www.inkscape.org/namespaces/inkscape"
   id="svg2"
   version="1.1"
   inkscape:version="0.48.5 r10040"
   width="531.5"
   height="180.95"
   xml:space="preserve"
   sodipodi:docname="bocusini-logo_final.eps"><metadata
     id="metadata8"><rdf:RDF><cc:Work
         rdf:about=""><dc:format>image/svg+xml</dc:format><dc:type
           rdf:resource="http://purl.org/dc/dcmitype/StillImage" /><dc:title></dc:title></cc:Work></rdf:RDF></metadata><defs
     id="defs6" /><sodipodi:namedview
     pagecolor="#ffffff"
     bordercolor="#666666"
     borderopacity="1"
     objecttolerance="10"
     gridtolerance="10"
     guidetolerance="10"
     inkscape:pageopacity="0"
     inkscape:pageshadow="2"
     inkscape:window-width="640"
     inkscape:window-height="480"
     id="namedview4"
     showgrid="false"
     inkscape:zoom="0.74694262"
     inkscape:cx="265.75"
     inkscape:cy="90.474998"
     inkscape:window-x="0"
     inkscape:window-y="0"
     inkscape:window-maximized="0"
     inkscape:current-layer="g10" /><g
     id="g10"
     inkscape:groupmode="layer"
     inkscape:label="ink_ext_XXXXXX"
     transform="matrix(1.25,0,0,-1.25,0,180.95)"><g
       id="g12"
       transform="scale(0.1,0.1)"><path
         d="m 937.602,605.371 c -105.129,0 -184.407,-83.672 -184.407,-194.633 0,-110.957 79.278,-194.629 184.407,-194.629 105.128,0 184.408,83.672 184.408,194.629 0,110.961 -79.28,194.633 -184.408,194.633 z m 0,-461.211 c -151.329,0 -265.446,114.61 -265.446,266.578 0,151.981 114.117,266.582 265.446,266.582 151.328,0 265.438,-114.601 265.438,-266.582 0,-151.968 -114.11,-266.578 -265.438,-266.578"
         style="fill:#231f20;fill-opacity:1;fill-rule:nonzero;stroke:none"
         id="path14" /><path
         d="m 1609.76,144.16 c -151.98,0 -266.58,114.61 -266.58,266.578 0,151.981 114.6,266.582 266.58,266.582 103.05,0 173.61,-50.773 205.29,-98.289 5.61,-8.414 7.9,-15.375 7.9,-24.019 0,-19.864 -16.93,-34.84 -39.39,-34.84 -13.63,0 -21.9,7.664 -28.8,15.949 -41.72,49.828 -82.38,69.25 -145,69.25 -51.48,0 -98.73,-20.156 -133.04,-56.754 -33.86,-36.113 -52.5,-85.078 -52.5,-137.879 0,-52.797 18.64,-101.758 52.5,-137.879 34.31,-36.589 81.56,-56.75 133.04,-56.75 62.62,0 103.28,19.422 145.01,69.262 6.89,8.277 15.16,15.938 28.79,15.938 22.46,0 39.39,-14.981 39.39,-34.84 0,-8.649 -2.29,-15.598 -7.9,-24.02 -31.68,-47.508 -102.24,-98.289 -205.29,-98.289"
         style="fill:#231f20;fill-opacity:1;fill-rule:nonzero;stroke:none"
         id="path16" /><path
         d="m 3254.74,148.711 c -22.72,0 -40.52,17.789 -40.52,40.519 l 0,443.028 c 0,22.722 17.8,40.519 40.52,40.519 22.72,0 40.52,-17.797 40.52,-40.519 l 0,-443.028 c 0,-22.73 -17.8,-40.519 -40.52,-40.519"
         style="fill:#231f20;fill-opacity:1;fill-rule:nonzero;stroke:none"
         id="path18" /><path
         d="m 3930.41,148.711 c -22.72,0 -40.52,17.789 -40.52,40.519 l 0,254.461 c 0,90.875 -68.04,159.407 -158.28,159.407 -90.23,0 -158.27,-68.532 -158.27,-159.407 l 0,-254.461 c 0,-22.73 -17.8,-40.519 -40.52,-40.519 -22.73,0 -40.52,17.789 -40.52,40.519 l 0,248.782 c 0,65.019 24.47,125.383 68.9,169.968 44.56,44.715 105.09,69.34 170.41,69.34 65.33,0 125.85,-24.625 170.42,-69.34 44.43,-44.585 68.9,-104.949 68.9,-169.968 l 0,-248.782 c 0,-22.73 -17.8,-40.519 -40.52,-40.519"
         style="fill:#231f20;fill-opacity:1;fill-rule:nonzero;stroke:none"
         id="path20" /><path
         d="m 4211.45,148.711 c -22.72,0 -40.52,17.789 -40.52,40.519 l 0,443.028 c 0,22.722 17.8,40.519 40.52,40.519 22.72,0 40.52,-17.797 40.52,-40.519 l 0,-443.028 c 0,-22.73 -17.8,-40.519 -40.52,-40.519"
         style="fill:#231f20;fill-opacity:1;fill-rule:nonzero;stroke:none"
         id="path22" /><path
         d="m 267.715,606.508 c -54.231,0 -101.149,-19.949 -135.684,-57.692 -32.8826,-35.933 -50.9919,-84.968 -50.9919,-138.078 0,-53.097 18.1093,-102.136 50.9919,-138.07 34.535,-37.738 81.453,-57.688 135.684,-57.688 108.578,0 184.406,80.5 184.406,195.758 0,115.266 -75.828,195.77 -184.406,195.77 z M 272.66,144.23 c -77.551,0 -147.637,28.071 -197.3475,79.02 -46.8242,48 -73.05469,112.809 -74.14062,182.941 -0.07032,1.27 -0.07422,2.629 -0.08204,4.059 L 1.04297,425.84 C 1.00391,439.262 0.953125,458.445 0.898438,481.465 0.789063,527.504 0.652344,588.887 0.519531,650.266 0.25,773.031 0,895.793 0,895.793 c 0,22.734 17.7969,40.531 40.5195,40.531 22.7188,0 40.5196,-17.797 40.5196,-40.519 l 0,-309.547 C 126.727,644.512 192.52,675.875 272.551,677.25 l 0.242,-0.004 c 72.914,-1.488 139.277,-29.824 186.859,-79.793 46.668,-49.008 72.371,-115.316 72.371,-186.715 0,-71.386 -25.703,-137.699 -72.371,-186.707 C 412.07,174.059 345.707,145.719 272.793,144.23 l -0.133,0"
         style="fill:#231f20;fill-opacity:1;fill-rule:nonzero;stroke:none"
         id="path24" /><path
         d="m 2846.45,145.91 c -67.2,0 -141.11,24.141 -197.71,64.57 -7.43,5.301 -15.37,16.141 -15.37,30.641 0,20.008 16.72,36.277 37.26,36.277 7.94,0 15.53,-2.386 20.87,-6.57 52.16,-35.398 105.61,-53.34 158.88,-53.34 60.55,0 101.24,30.813 101.24,76.672 l 0,1.969 c 0,47.211 -56.11,66.723 -123.89,85.66 -37.26,10.582 -79.47,22.563 -112.55,43.973 -39.18,25.359 -58.23,59.101 -58.23,103.156 l 0,1.961 c 0,87.867 72.67,149.234 176.73,149.234 52.76,0 112.5,-15.918 163.91,-43.679 l 0.25,-0.145 c 6.15,-3.687 20.44,-14.453 20.44,-34.687 0,-20 -16.71,-36.274 -37.26,-36.274 -8.48,0 -15.19,2.715 -18.42,4.332 l -0.31,0.16 c -44.57,25.332 -89.72,38.723 -130.57,38.723 -55.56,0 -94.36,-28.703 -94.36,-69.805 l 0,-1.961 c 0,-44.808 61.18,-63.425 125.95,-83.132 l 1.95,-0.594 c 37.5,-11.25 80.21,-25.16 112.1,-47.813 36.13,-25.66 53.69,-58.777 53.69,-101.25 l 0,-1.968 c 0,-93.372 -74.19,-156.11 -184.6,-156.11"
         style="fill:#231f20;fill-opacity:1;fill-rule:nonzero;stroke:none"
         id="path26" /><path
         d="m 2169.57,608.027 c -17.57,0 -31.81,14.243 -31.81,31.809 l 0,55.519 c 0,17.567 14.24,31.805 31.81,31.805 17.57,0 31.81,-14.238 31.81,-31.805 l 0,-55.519 c 0,-17.566 -14.24,-31.809 -31.81,-31.809"
         style="fill:#231f20;fill-opacity:1;fill-rule:nonzero;stroke:none"
         id="path28" /><path
         d="m 2296.04,608.027 c -17.56,0 -31.8,14.243 -31.8,31.809 l 0,55.519 c 0,17.567 14.24,31.805 31.8,31.805 17.57,0 31.81,-14.238 31.81,-31.805 l 0,-55.519 c 0,-17.566 -14.24,-31.809 -31.81,-31.809"
         style="fill:#231f20;fill-opacity:1;fill-rule:nonzero;stroke:none"
         id="path30" /><path
         d="m 2500.55,960.133 c -3.6,0 -7.24,0.137 -10.82,0.406 -5.73,0.434 -11.28,-0.355 -16.4,-2.129 -16.87,-5.043 -29.18,-20.66 -29.18,-39.172 l 0,-73.152 c -9.33,2.82 -17.51,4.773 -23.17,6.125 -50.45,12.047 -116.89,18.68 -187.08,18.68 -70.18,0 -136.62,-6.633 -187.08,-18.68 -5.66,-1.352 -13.84,-3.305 -23.17,-6.121 l 0,64.062 c 0,18.508 -12.3,34.125 -29.17,39.168 -5.12,1.774 -10.67,2.567 -16.41,2.133 -3.58,-0.269 -7.21,-0.406 -10.81,-0.406 -77.88,0 -141.24,63.363 -141.24,141.243 0,73.82 56.94,134.56 129.21,140.69 -6.27,-23.63 -9.63,-48.43 -9.63,-74 0,-22.59 18.3,-40.9 40.89,-40.9 22.59,0 40.9,18.31 40.9,40.9 0,114.06 92.79,206.85 206.85,206.85 114.06,0 206.85,-92.79 206.85,-206.85 0,-22.59 18.31,-40.9 40.9,-40.9 22.58,0 40.89,18.31 40.89,40.9 0,28.93 -4.29,56.86 -12.25,83.23 73.19,-5.19 131.15,-66.35 131.15,-140.83 0,-77.89 -63.36,-141.247 -141.23,-141.247 z m 223.03,141.247 c 0,122.97 -100.06,223.02 -223.03,223.02 -9.58,0 -19.17,-0.61 -28.64,-1.83 -52.12,75.48 -139.21,125.05 -237.67,125.05 -102.12,0 -192.02,-53.31 -243.34,-133.56 -7.84,0.83 -15.74,1.26 -23.64,1.26 -122.98,0 -223.03,-100.05 -223.03,-223.03 0,-114.395 86.57,-208.935 197.63,-221.579 l 0,-111.148 c 0,-22.586 18.31,-40.895 40.9,-40.895 22.2,0 40.22,17.695 40.84,39.742 20.06,10.727 88.3,30.688 210.3,30.688 125.29,0 193.88,-21.051 211.81,-31.532 4.84,-17.191 20.6,-29.808 39.34,-29.808 22.58,0 40.89,18.308 40.89,40.894 l 0,111.145 c 111.06,12.648 197.64,107.183 197.64,221.583"
         style="fill:#231f20;fill-opacity:1;fill-rule:nonzero;stroke:none"
         id="path32" /><path
         d="m 2233.9,0 c -8.91,0 -18.51,6.82031 -18.51,21.7813 0,93.5977 -40.55,120.9887 -79.76,147.4807 -6.39,4.316 -12.99,8.777 -19.21,13.418 -2.59,1.929 -5.21,3.859 -7.86,5.808 -44.54,32.793 -95.02,69.961 -95.02,192.512 l 0,208.852 c 0,21.484 17.48,38.961 38.97,38.961 21.48,0 38.96,-17.477 38.96,-38.961 l 0,-208.852 c 0,-88.66 27.2,-112.559 71.59,-144.211 17,-12.129 42.41,-19.078 69.72,-19.078 27.45,0 53.66,6.937 71.92,19.039 43.27,28.691 71.64,54.23 71.64,144.25 l 0,208.852 c 0,21.484 17.48,38.961 38.96,38.961 21.48,0 38.96,-17.477 38.96,-38.961 l 0,-208.852 c 0,-122.551 -50.48,-159.719 -95.02,-192.512 -2.64,-1.949 -5.26,-3.879 -7.85,-5.808 -6.22,-4.641 -12.83,-9.102 -19.21,-13.418 C 2292.97,142.77 2252.42,115.379 2252.42,21.7813 2252.42,6.82031 2242.82,0 2233.9,0"
         style="fill:#231f20;fill-opacity:1;fill-rule:nonzero;stroke:none"
         id="path34" /></g></g></svg>