<?xml version="1.0" encoding="UTF-8" standalone="no"?>
<!-- Created with Inkscape (http://www.inkscape.org/) -->

<svg
   xmlns:dc="http://purl.org/dc/elements/1.1/"
   xmlns:cc="http://creativecommons.org/ns#"
   xmlns:rdf="http://www.w3.org/1999/02/22-rdf-syntax-ns#"
   xmlns:svg="http://www.w3.org/2000/svg"
   xmlns="http://www.w3.org/2000/svg"
   xmlns:sodipodi="http://sodipodi.sourceforge.net/DTD/sodipodi-0.dtd"
   xmlns:inkscape="http://www.inkscape.org/namespaces/inkscape"
   id="svg2"
   version="1.1"
   inkscape:version="0.48.5 r10040"
   width="531.5"
   height="180.95"
   xml:space="preserve"
   sodipodi:docname="logo.svg"><metadata
     id="metadata8"><rdf:RDF><cc:Work
         rdf:about=""><dc:format>image/svg+xml</dc:format><dc:type
           rdf:resource="http://purl.org/dc/dcmitype/StillImage" /><dc:title></dc:title></cc:Work></rdf:RDF></metadata><defs
     id="defs6" /><sodipodi:namedview
     pagecolor="#ffffff"
     bordercolor="#666666"
     borderopacity="1"
     objecttolerance="10"
     gridtolerance="10"
     guidetolerance="10"
     inkscape:pageopacity="0"
     inkscape:pageshadow="2"
     inkscape:window-width="640"
     inkscape:window-height="480"
     id="namedview4"
     showgrid="false"
     inkscape:zoom="0.74694262"
     inkscape:cx="265.75"
     inkscape:cy="90.474999"
     inkscape:window-x="0"
     inkscape:window-y="0"
     inkscape:window-maximized="0"
     inkscape:current-layer="g10" /><g
     id="g10"
     inkscape:groupmode="layer"
     inkscape:label="ink_ext_XXXXXX"
     transform="matrix(1.25,0,0,-1.25,0,180.95)"><g
       id="g3005"><path
         d="m 93.7602,60.5371 c -10.5129,0 -18.4407,-8.3672 -18.4407,-19.4633 0,-11.0957 7.9278,-19.4629 18.4407,-19.4629 10.5128,0 18.4408,8.3672 18.4408,19.4629 0,11.0961 -7.928,19.4633 -18.4408,19.4633 z m 0,-46.1211 c -15.1329,0 -26.5446,11.461 -26.5446,26.6578 0,15.1981 11.4117,26.6582 26.5446,26.6582 15.1328,0 26.5438,-11.4601 26.5438,-26.6582 0,-15.1968 -11.411,-26.6578 -26.5438,-26.6578"
         style="fill:#ffffff;fill-opacity:1;fill-rule:nonzero;stroke:none"
         id="path14"
         inkscape:connector-curvature="0" /><path
         d="m 160.976,14.416 c -15.198,0 -26.658,11.461 -26.658,26.6578 0,15.1981 11.46,26.6582 26.658,26.6582 10.305,0 17.361,-5.0773 20.529,-9.8289 0.561,-0.8414 0.79,-1.5375 0.79,-2.4019 0,-1.9864 -1.693,-3.484 -3.939,-3.484 -1.363,0 -2.19,0.7664 -2.88,1.5949 -4.172,4.9828 -8.238,6.925 -14.5,6.925 -5.148,0 -9.873,-2.0156 -13.304,-5.6754 -3.386,-3.6113 -5.25,-8.5078 -5.25,-13.7879 0,-5.2797 1.864,-10.1758 5.25,-13.7879 3.431,-3.6589 8.156,-5.675 13.304,-5.675 6.262,0 10.328,1.9422 14.501,6.9262 0.689,0.8277 1.516,1.5938 2.879,1.5938 2.246,0 3.939,-1.4981 3.939,-3.484 0,-0.8649 -0.229,-1.5598 -0.79,-2.402 -3.168,-4.7508 -10.224,-9.8289 -20.529,-9.8289"
         style="fill:#ffffff;fill-opacity:1;fill-rule:nonzero;stroke:none"
         id="path16"
         inkscape:connector-curvature="0" /><path
         d="m 325.474,14.8711 c -2.272,0 -4.052,1.7789 -4.052,4.0519 l 0,44.3028 c 0,2.2722 1.78,4.0519 4.052,4.0519 2.272,0 4.052,-1.7797 4.052,-4.0519 l 0,-44.3028 c 0,-2.273 -1.78,-4.0519 -4.052,-4.0519"
         style="fill:#ffffff;fill-opacity:1;fill-rule:nonzero;stroke:none"
         id="path18"
         inkscape:connector-curvature="0" /><path
         d="m 393.041,14.8711 c -2.272,0 -4.052,1.7789 -4.052,4.0519 l 0,25.4461 c 0,9.0875 -6.804,15.9407 -15.828,15.9407 -9.023,0 -15.827,-6.8532 -15.827,-15.9407 l 0,-25.4461 c 0,-2.273 -1.78,-4.0519 -4.052,-4.0519 -2.273,0 -4.052,1.7789 -4.052,4.0519 l 0,24.8782 c 0,6.5019 2.447,12.5383 6.89,16.9968 4.456,4.4715 10.509,6.934 17.041,6.934 6.533,0 12.585,-2.4625 17.042,-6.934 4.443,-4.4585 6.89,-10.4949 6.89,-16.9968 l 0,-24.8782 c 0,-2.273 -1.78,-4.0519 -4.052,-4.0519"
         style="fill:#ffffff;fill-opacity:1;fill-rule:nonzero;stroke:none"
         id="path20"
         inkscape:connector-curvature="0" /><path
         d="m 421.145,14.8711 c -2.272,0 -4.052,1.7789 -4.052,4.0519 l 0,44.3028 c 0,2.2722 1.78,4.0519 4.052,4.0519 2.272,0 4.052,-1.7797 4.052,-4.0519 l 0,-44.3028 c 0,-2.273 -1.78,-4.0519 -4.052,-4.0519"
         style="fill:#ffffff;fill-opacity:1;fill-rule:nonzero;stroke:none"
         id="path22"
         inkscape:connector-curvature="0" /><path
         d="m 26.7715,60.6508 c -5.4231,0 -10.1149,-1.9949 -13.5684,-5.7692 -3.28826,-3.5933 -5.09919,-8.4968 -5.09919,-13.8078 0,-5.3097 1.81093,-10.2136 5.09919,-13.807 3.4535,-3.7738 8.1453,-5.7688 13.5684,-5.7688 10.8578,0 18.4406,8.05 18.4406,19.5758 0,11.5266 -7.5828,19.577 -18.4406,19.577 z M 27.266,14.423 c -7.7551,0 -14.7637,2.8071 -19.73475,7.902 -4.68242,4.8 -7.305469,11.2809 -7.414062,18.2941 -0.007032,0.127 -0.007422,0.2629 -0.008204,0.4059 L 0.104297,42.584 C 0.100391,43.9262 0.0953125,45.8445 0.0898438,48.1465 0.0789063,52.7504 0.0652344,58.8887 0.0519531,65.0266 0.025,77.3031 0,89.5793 0,89.5793 c 0,2.2734 1.77969,4.0531 4.05195,4.0531 2.27188,0 4.05196,-1.7797 4.05196,-4.0519 l 0,-30.9547 C 12.6727,64.4512 19.252,67.5875 27.2551,67.725 l 0.0242,-4e-4 c 7.2914,-0.1488 13.9277,-2.9824 18.6859,-7.9793 4.6668,-4.9008 7.2371,-11.5316 7.2371,-18.6715 0,-7.1386 -2.5703,-13.7699 -7.2371,-18.6707 C 41.207,17.4059 34.5707,14.5719 27.2793,14.423 l -0.0133,0"
         style="fill:#ffffff;fill-opacity:1;fill-rule:nonzero;stroke:none"
         id="path24"
         inkscape:connector-curvature="0" /><path
         d="m 284.645,14.591 c -6.72,0 -14.111,2.4141 -19.771,6.457 -0.743,0.5301 -1.537,1.6141 -1.537,3.0641 0,2.0008 1.672,3.6277 3.726,3.6277 0.794,0 1.553,-0.2386 2.087,-0.657 5.216,-3.5398 10.561,-5.334 15.888,-5.334 6.055,0 10.124,3.0813 10.124,7.6672 l 0,0.1969 c 0,4.7211 -5.611,6.6723 -12.389,8.566 -3.726,1.0582 -7.947,2.2563 -11.255,4.3973 -3.918,2.5359 -5.823,5.9101 -5.823,10.3156 l 0,0.1961 c 0,8.7867 7.267,14.9234 17.673,14.9234 5.276,0 11.25,-1.5918 16.391,-4.3679 l 0.025,-0.0145 c 0.615,-0.3687 2.044,-1.4453 2.044,-3.4687 0,-2 -1.671,-3.6274 -3.726,-3.6274 -0.848,0 -1.519,0.2715 -1.842,0.4332 l -0.031,0.016 c -4.457,2.5332 -8.972,3.8723 -13.057,3.8723 -5.556,0 -9.436,-2.8703 -9.436,-6.9805 l 0,-0.1961 c 0,-4.4808 6.118,-6.3425 12.595,-8.3132 l 0.195,-0.0594 c 3.75,-1.125 8.021,-2.516 11.21,-4.7813 3.613,-2.566 5.369,-5.8777 5.369,-10.125 l 0,-0.1968 c 0,-9.3372 -7.419,-15.611 -18.46,-15.611"
         style="fill:#ffffff;fill-opacity:1;fill-rule:nonzero;stroke:none"
         id="path26"
         inkscape:connector-curvature="0" /><path
         d="m 216.957,60.8027 c -1.757,0 -3.181,1.4243 -3.181,3.1809 l 0,5.5519 c 0,1.7567 1.424,3.1805 3.181,3.1805 1.757,0 3.181,-1.4238 3.181,-3.1805 l 0,-5.5519 c 0,-1.7566 -1.424,-3.1809 -3.181,-3.1809"
         style="fill:#ffffff;fill-opacity:1;fill-rule:nonzero;stroke:none"
         id="path28"
         inkscape:connector-curvature="0" /><path
         d="m 229.604,60.8027 c -1.756,0 -3.18,1.4243 -3.18,3.1809 l 0,5.5519 c 0,1.7567 1.424,3.1805 3.18,3.1805 1.757,0 3.181,-1.4238 3.181,-3.1805 l 0,-5.5519 c 0,-1.7566 -1.424,-3.1809 -3.181,-3.1809"
         style="fill:#ffffff;fill-opacity:1;fill-rule:nonzero;stroke:none"
         id="path30"
         inkscape:connector-curvature="0" /><path
         d="m 250.055,96.0133 c -0.36,0 -0.724,0.0137 -1.082,0.0406 -0.573,0.0434 -1.128,-0.0355 -1.64,-0.2129 -1.687,-0.5043 -2.918,-2.066 -2.918,-3.9172 l 0,-7.3152 c -0.933,0.282 -1.751,0.4773 -2.317,0.6125 -5.045,1.2047 -11.689,1.868 -18.708,1.868 -7.018,0 -13.662,-0.6633 -18.708,-1.868 -0.566,-0.1352 -1.384,-0.3305 -2.317,-0.6121 l 0,6.4062 c 0,1.8508 -1.23,3.4125 -2.917,3.9168 -0.512,0.1774 -1.067,0.2567 -1.641,0.2133 -0.358,-0.0269 -0.721,-0.0406 -1.081,-0.0406 -7.788,0 -14.124,6.3363 -14.124,14.1243 0,7.382 5.694,13.456 12.921,14.069 -0.627,-2.363 -0.963,-4.843 -0.963,-7.4 0,-2.259 1.83,-4.09 4.089,-4.09 2.259,0 4.09,1.831 4.09,4.09 0,11.406 9.279,20.685 20.685,20.685 11.406,0 20.685,-9.279 20.685,-20.685 0,-2.259 1.831,-4.09 4.09,-4.09 2.258,0 4.089,1.831 4.089,4.09 0,2.893 -0.429,5.686 -1.225,8.323 7.319,-0.519 13.115,-6.635 13.115,-14.083 0,-7.789 -6.336,-14.1247 -14.123,-14.1247 z m 22.303,14.1247 c 0,12.297 -10.006,22.302 -22.303,22.302 -0.958,0 -1.917,-0.061 -2.864,-0.183 -5.212,7.548 -13.921,12.505 -23.767,12.505 -10.212,0 -19.202,-5.331 -24.334,-13.356 -0.784,0.083 -1.574,0.126 -2.364,0.126 -12.298,0 -22.303,-10.005 -22.303,-22.303 0,-11.4395 8.657,-20.8935 19.763,-22.1579 l 0,-11.1148 c 0,-2.2586 1.831,-4.0895 4.09,-4.0895 2.22,0 4.022,1.7695 4.084,3.9742 2.006,1.0727 8.83,3.0688 21.03,3.0688 12.529,0 19.388,-2.1051 21.181,-3.1532 0.484,-1.7191 2.06,-2.9808 3.934,-2.9808 2.258,0 4.089,1.8308 4.089,4.0894 l 0,11.1145 c 11.106,1.2648 19.764,10.7183 19.764,22.1583"
         style="fill:#ffffff;fill-opacity:1;fill-rule:nonzero;stroke:none"
         id="path32"
         inkscape:connector-curvature="0" /><path
         d="m 223.39,0 c -0.891,0 -1.851,0.682031 -1.851,2.17813 0,9.35977 -4.055,12.09887 -7.976,14.74807 -0.639,0.4316 -1.299,0.8777 -1.921,1.3418 -0.259,0.1929 -0.521,0.3859 -0.786,0.5808 -4.454,3.2793 -9.502,6.9961 -9.502,19.2512 l 0,20.8852 c 0,2.1484 1.748,3.8961 3.897,3.8961 2.148,0 3.896,-1.7477 3.896,-3.8961 l 0,-20.8852 c 0,-8.866 2.72,-11.2559 7.159,-14.4211 1.7,-1.2129 4.241,-1.9078 6.972,-1.9078 2.745,0 5.366,0.6937 7.192,1.9039 4.327,2.8691 7.164,5.423 7.164,14.425 l 0,20.8852 c 0,2.1484 1.748,3.8961 3.896,3.8961 2.148,0 3.896,-1.7477 3.896,-3.8961 l 0,-20.8852 c 0,-12.2551 -5.048,-15.9719 -9.502,-19.2512 -0.264,-0.1949 -0.526,-0.3879 -0.785,-0.5808 -0.622,-0.4641 -1.283,-0.9102 -1.921,-1.3418 C 229.297,14.277 225.242,11.5379 225.242,2.17813 225.242,0.682031 224.282,0 223.39,0"
         style="fill:#ffffff;fill-opacity:1;fill-rule:nonzero;stroke:none"
         id="path34"
         inkscape:connector-curvature="0" /></g></g></svg>