<svg width="26" height="26" viewBox="0 0 26 26" xmlns="http://www.w3.org/2000/svg"><circle r="12" cx="12" cy="13" fill="#2D3D4F" /><path fill-rule="evenodd" clip-rule="evenodd" d="M12.0152 0.992554C14.6774 0.993669 17.2637 1.88102 19.3678 3.51516C21.4719 5.14931 22.9746 7.43764 23.6397 10.0206C24.3047 12.6035 24.0945 15.3347 23.0421 17.7849C21.9896 20.2351 20.1546 22.2655 17.8253 23.557C17.9921 20.1513 17.9517 16.0958 15.9953 14.7232C15.9841 14.671 15.9787 14.6176 15.9792 14.5641C16.5496 14.1876 17.0181 13.6752 17.3426 13.0729C17.6671 12.4706 17.8375 11.7971 17.8387 11.1126V10.8268C17.8376 9.74146 17.4104 8.70018 16.6493 7.928C17.1975 7.24941 17.5118 6.4113 17.5454 5.53889C17.202 5.87592 16.8341 6.18687 16.4447 6.46919C15.9237 6.84694 15.3612 7.1636 14.7682 7.41297C11.9883 8.56169 8.89895 7.95227 6.45006 5.53889C6.48434 6.4363 6.81572 7.29676 7.39194 7.98463C6.66386 8.75115 6.25734 9.76856 6.2563 10.8268V11.1126C6.25777 11.8063 6.43298 12.4885 6.76586 13.0967C7.09874 13.7049 7.57864 14.2197 8.16159 14.5938C8.16159 14.6621 8.15621 14.7322 8.14544 14.8041L8.1266 14.8284C5.93875 16.4975 6.05985 21.3567 8.5195 24.5359C5.76879 23.6932 3.41123 21.8894 1.87553 19.4523C0.339838 17.0153 -0.271994 14.1069 0.151296 11.2561C0.574587 8.40528 2.00489 5.80135 4.1821 3.91783C6.35931 2.03431 9.13883 0.996302 12.0152 0.992554V0.992554Z" fill="#01A299"/></svg>