<svg xmlns="http://www.w3.org/2000/svg" xmlns:xlink="http://www.w3.org/1999/xlink" viewBox="0 0 800 800"><defs><style>.cls-1{fill:url(#linear-gradient);}.cls-2{fill:#a65eb7;}.cls-3{fill:#492891;}</style><linearGradient id="linear-gradient" x1="93.58" y1="657.12" x2="706.42" y2="142.88" gradientUnits="userSpaceOnUse"><stop offset="0" stop-color="#9498ff"/><stop offset="0.99" stop-color="#69f"/></linearGradient></defs><g id="Layer_1" data-name="Layer 1"><circle class="cls-1" cx="400" cy="400" r="400"/></g><g id="Layer_2" data-name="Layer 2"><path class="cls-2" d="M655,149.74a12.16,12.16,0,0,0-11.87-11.87c-38-.64-77.81,5.54-117.06,17.51-78.26,23.85-154.26,70.68-209,132.15C238.47,289,162,321.46,105.63,377.8a12.15,12.15,0,0,0,6.81,20.69l93.68,13.42-11.56,13a12.17,12.17,0,0,0,.48,16.71L351.32,597.87a12.27,12.27,0,0,0,8.61,3.55,12,12,0,0,0,8.07-3.1l13-11.58,13.44,93.75c.63,4.57,4.23,7.92,8.61,9.38a10.86,10.86,0,0,0,3.48.54,13.7,13.7,0,0,0,9.41-3.91c55.58-55.56,88-132.11,89.48-210.71,60.76-54.2,107.46-128.94,131.56-206.1C649.49,229.5,655.91,188.68,655,149.74ZM513.92,330.58a36.45,36.45,0,1,1,0-51.6A36.59,36.59,0,0,1,513.92,330.58Z"/><path class="cls-3" d="M244,655.18c-26,26-143.57,61.74-156.87,65.72a13.25,13.25,0,0,1-3.5.49A12.13,12.13,0,0,1,72,705.76c4-13.31,39.71-130.85,65.73-156.87A75.16,75.16,0,0,1,244,655.18Z"/></g></svg>